<?xml version="1.0"?>
<svg xmlns="http://www.w3.org/2000/svg" viewBox="0 0 64 64" width="512" height="512"><g id="outline"><rect x="31" y="27" width="2" height="10"/><path d="M43,12.162A11,11,0,0,0,36.4,2.084,1,1,0,0,0,35,3v9.162a3,3,0,0,1-6,0V3a1,1,0,0,0-1.4-.916A10.995,10.995,0,0,0,27,21.957V42.042a11,11,0,0,0,.6,19.874A1,1,0,0,0,29,61V51a3,3,0,0,1,6,0V61a1,1,0,0,0,1,1,.98.98,0,0,0,.4-.084A11,11,0,0,0,37,42.042V21.957A11,11,0,0,0,43,12.162ZM35.6,43.591A8.995,8.995,0,0,1,37,59.317V51a5,5,0,0,0-10,0v8.317a8.995,8.995,0,0,1,1.4-15.726,1,1,0,0,0,.6-.916V21.324a1,1,0,0,0-.6-.916A8.994,8.994,0,0,1,27,4.683v7.479a5,5,0,0,0,10,0V4.683a8.994,8.994,0,0,1-1.4,15.725,1,1,0,0,0-.6.916V42.675A1,1,0,0,0,35.6,43.591Z"/><path d="M18,38H16.618L17.9,35.447l-.009,0A.991.991,0,0,0,18,35V29a1,1,0,0,0-1-1H15V10a1.007,1.007,0,0,0-.038-.274l-2-7a1,1,0,0,0-1.924,0l-2,7A1.007,1.007,0,0,0,9,10V28H7a1,1,0,0,0-1,1v6a.978.978,0,0,0,.115.443l-.01,0L7.382,38H6a1,1,0,0,0-1,1V57.559A3,3,0,0,0,7.051,60.4l4.633,1.544h0a.98.98,0,0,0,.624,0h0L16.949,60.4A3,3,0,0,0,19,57.559V39A1,1,0,0,0,18,38ZM11,10.14l1-3.5,1,3.5V28H11ZM8,30h8v4H8Zm.618,6h6.764l-1,2H9.618ZM7,57.559V40h4V59.612l-3.316-1.1A1,1,0,0,1,7,57.559Zm10,0a1,1,0,0,1-.684.949L13,59.612V40h4Z"/><path d="M55,34a1,1,0,0,0,1-1V29a1,1,0,0,0-1-1H54V11.123l.97-3.881A1,1,0,0,0,54.8,6.4l-3-4a1.036,1.036,0,0,0-1.6,0l-3,4a1,1,0,0,0-.17.842L48,11.123V28H47a1,1,0,0,0-1,1v4a1,1,0,0,0,1,1h1v4H47a1,1,0,0,0-1,1V61a1,1,0,0,0,1,1h8a1,1,0,0,0,1-1V39a1,1,0,0,0-1-1H54V34ZM49.97,10.758l-.884-3.539L51,4.667l1.914,2.552-.884,3.539A.984.984,0,0,0,52,11V28H50V11A.984.984,0,0,0,49.97,10.758ZM48,30h6v2H48Zm6,30H48V40h6ZM52,38H50V34h2Z"/><rect x="50" y="42" width="2" height="2"/><rect x="31" y="23" width="2" height="2"/><rect x="31" y="39" width="2" height="2"/></g></svg>
